<svg width="14" height="24" viewBox="0 0 14 24" fill="none" xmlns="http://www.w3.org/2000/svg">
<path fill-rule="evenodd" clip-rule="evenodd" d="M12 2.14083C11.685 2.0975 10.6018 2 9.34022 2C6.70794 2 4.90476 3.65583 4.90476 6.69917V9.5H2V13.055H4.90476V22H8.46613V13.0558H11.2534L11.6959 9.50083H8.4653V7.05167C8.46548 6.82978 8.47852 6.62301 8.51327 6.43517C8.63947 5.7532 9.05191 5.32083 10.1743 5.32083H12V2.14083ZM10.4653 7.32083H12C13.1046 7.32083 14 6.4254 14 5.32083V2.14083C14 1.1416 13.2625 0.295686 12.2726 0.159496C11.8551 0.102058 10.6798 0 9.34022 0C7.60083 0 5.93683 0.555671 4.70817 1.80725C3.48051 3.0578 2.90476 4.78123 2.90476 6.69917V7.5H2C0.89543 7.5 0 8.39543 0 9.5V13.055C0 14.1596 0.89543 15.055 2 15.055H2.90476V22C2.90476 23.1046 3.80019 24 4.90476 24H8.46613C9.5707 24 10.4661 23.1046 10.4661 22V15.0558H11.2534C12.2624 15.0558 13.1135 14.3042 13.2381 13.3029L13.6805 9.74785C13.7514 9.17877 13.5745 8.60665 13.1949 8.17683C12.8152 7.74701 12.2693 7.50083 11.6959 7.50083H10.4653V7.32083Z" fill="white"/>
</svg>
