<svg width="18" height="19" viewBox="0 0 18 19" fill="none" xmlns="http://www.w3.org/2000/svg">
<circle cx="9" cy="9" r="9" fill="#FBD836"/>
<path d="M17.8366 0.51992L17.7553 0.245037L17.4807 0.163628C17.4297 0.148493 16.2095 -0.202554 14.2919 0.172568C13.1868 0.388743 12.0663 0.802546 10.9616 1.40247C9.59491 2.14465 8.24766 3.17604 6.95718 4.46796C4.17326 7.25505 2.46853 10.0262 1.5287 11.8602C0.503508 13.8607 0.14277 15.193 0.127898 15.2487L0 15.7286L1.71703 16.3015L2.28923 18.0205L2.76866 17.8925C2.82431 17.8776 4.15515 17.5164 6.15333 16.4901C7.98518 15.5491 10.7531 13.8425 13.5371 11.0554C14.8275 9.76345 15.8578 8.41466 16.5991 7.04644C17.1984 5.94043 17.6117 4.81869 17.8276 3.71233C18.2023 1.79262 17.8517 0.57099 17.8366 0.51992ZM6.87881 14.888C6.45546 15.1351 6.06129 15.3498 5.70466 15.5337C4.47947 16.1653 3.50912 16.5366 2.96888 16.7221L2.55094 15.4667L1.29695 15.0483C1.4824 14.5073 1.85323 13.5358 2.48404 12.3094C2.66769 11.9524 2.88218 11.5578 3.12891 11.1339H6.87881V14.888V14.888ZM7.93361 14.2401V10.0779H3.7761C4.11659 9.54904 4.5013 8.98981 4.93502 8.41016V8.41227H9.59731V13.0798H9.59941C9.02043 13.5141 8.46183 13.8992 7.93361 14.2401ZM16.778 3.58217C16.5755 4.57605 16.1946 5.58843 15.6457 6.59128C14.9548 7.85346 13.9944 9.10423 12.7913 10.3088C12.071 11.0299 11.3523 11.6751 10.6521 12.2518V7.35627H5.76218C6.33818 6.65523 6.9827 5.93575 7.70298 5.21465C8.90613 4.01013 10.1555 3.04867 11.4162 2.35699C12.4179 1.80747 13.4291 1.42601 14.4219 1.22335C15.1355 1.07764 15.7377 1.04653 16.1961 1.0592L14.3282 2.92921L15.0741 3.6759L16.9419 1.80589C16.9547 2.26485 16.9236 2.86776 16.778 3.58217Z" fill="#05192C"/>
</svg>
