<svg width="27" height="18" viewBox="0 0 27 18" fill="none" xmlns="http://www.w3.org/2000/svg">
<circle cx="13" cy="9" r="9" fill="#FBD836"/>
<path fill-rule="evenodd" clip-rule="evenodd" d="M22.2159 13.0698C23.2191 12.4408 24.3845 12.1204 25.5678 12.1482C25.8072 12.1482 26.0011 12.3425 26.0011 12.5821C26.0011 12.8217 25.8071 13.016 25.5678 13.016C24.5317 12.9913 23.5116 13.2745 22.6362 13.8299C21.633 14.4589 20.4675 14.7793 19.2842 14.7515C18.1003 14.7796 16.9342 14.4592 15.9305 13.8299C15.0546 13.2742 14.0338 12.9909 12.9971 13.016C11.9615 12.9913 10.9417 13.2745 10.0668 13.8299C9.85364 13.9471 9.63781 14.0655 9.40684 14.177L9.40075 14.1801C8.5646 14.5824 7.6443 14.7784 6.71699 14.7515C5.53378 14.7794 4.3684 14.459 3.36543 13.8299C2.48997 13.2743 1.46957 12.991 0.433336 13.016C0.193993 13.016 0 12.8217 0 12.5821C0 12.3425 0.193993 12.1483 0.433336 12.1483C0.598433 12.1483 0.749261 12.1561 0.898768 12.1647L3.00659 8.87689C3.08632 8.75248 3.22384 8.67728 3.37147 8.67733H4.11687L5.15692 7.28894C5.32095 7.07088 5.57761 6.94239 5.85027 6.94183H6.23246L7.53252 4.33864H6.93363C6.2156 4.33864 5.63357 3.75592 5.63357 3.03704C5.63357 2.31817 6.21565 1.73545 6.93363 1.73545H8.83258L8.39925 0.867698H6.93363C6.69429 0.867698 6.5003 0.673475 6.5003 0.433849C6.5003 0.194223 6.69429 0 6.93363 0H11.7005C11.9399 0 12.1339 0.194273 12.1339 0.433849C12.1339 0.673424 11.9399 0.867698 11.7005 0.867698H9.3682L9.80153 1.73545H14.2616C15.2472 1.73224 16.149 2.29015 16.587 3.17417L16.808 3.61625L21.3751 6.94183H25.1345C25.473 6.94133 25.7809 7.13819 25.9228 7.44595C26.0647 7.75371 26.0145 8.11602 25.7945 8.37359L21.6408 13.3735C21.8358 13.2796 22.0214 13.1771 22.2094 13.0733L22.2159 13.0698ZM17.5183 5.20639L16.3266 4.33864V4.33869H12.1339V4.77254C12.1339 5.01217 12.3279 5.20639 12.5673 5.20639H17.5183ZM6.5003 3.03709C6.5003 3.27672 6.69429 3.47094 6.93363 3.47094V3.47099H15.758C15.4513 2.93348 14.8799 2.60218 14.2617 2.60325H6.93363C6.69429 2.60325 6.5003 2.79747 6.5003 3.03709ZM11.2672 4.33864H8.50152L7.20147 6.94183H19.9018L18.71 6.07409H12.5673C11.8492 6.07409 11.2672 5.49132 11.2672 4.77249V4.33864ZM14.734 7.80958H5.85027L5.20024 8.67728H14.3007C14.54 8.67728 14.734 8.48306 14.734 8.24343V7.80958ZM16.3491 13.0698C17.2255 13.6258 18.2469 13.9091 19.2842 13.8837C19.5694 13.8841 19.8543 13.8655 20.137 13.8281L25.1305 7.81218H21.2342V9.11118C21.2342 9.35081 21.0402 9.54503 20.8009 9.54503C20.5616 9.54503 20.3676 9.35081 20.3676 9.11118V7.80958H19.5008V9.11118C19.5008 9.35081 19.3068 9.54503 19.0675 9.54503C18.8282 9.54503 18.6342 9.35081 18.6342 9.11118V7.80958H17.7674V9.11118C17.7674 9.35081 17.5734 9.54503 17.3341 9.54503C17.0948 9.54503 16.9008 9.35081 16.9008 9.11118V7.80958H15.6007V8.24343C15.6007 8.96231 15.0186 9.54503 14.3007 9.54503H3.60812L1.85045 12.2888C2.53268 12.4439 3.18565 12.7076 3.78449 13.0698C4.66005 13.6255 5.6806 13.9087 6.71699 13.8837C7.75267 13.9086 8.77245 13.6253 9.6473 13.0698C10.6497 12.4409 11.8145 12.1205 12.9971 12.1482C14.1804 12.1205 15.3459 12.4408 16.3491 13.0698ZM22.2157 15.6732C23.2189 15.0443 24.3844 14.7239 25.5677 14.7517C25.8071 14.7517 26.0011 14.946 26.0011 15.1856C26.0011 15.4252 25.8071 15.6194 25.5678 15.6194C24.5317 15.5947 23.5115 15.8779 22.6361 16.4333C21.633 17.0622 20.4675 17.3826 19.2842 17.3547C18.1003 17.3829 16.9342 17.0625 15.9305 16.4333C15.0546 15.8775 14.0338 15.5943 12.9971 15.6194C11.9615 15.5945 10.9418 15.8776 10.0668 16.4328C9.0645 17.062 7.89968 17.3826 6.71698 17.3547C5.53378 17.3827 4.3684 17.0623 3.36542 16.4332C2.48997 15.8776 1.46957 15.5944 0.433336 15.6193C0.193993 15.6193 0 15.4251 0 15.1855C0 14.9459 0.193993 14.7517 0.433336 14.7517C1.61639 14.7238 2.78162 15.0442 3.78444 15.6732C4.66 16.2288 5.68054 16.5121 6.71693 16.4871C7.75261 16.5119 8.77239 16.2286 9.64724 15.6732C10.6497 15.0443 11.8144 14.7239 12.9971 14.7517C14.1809 14.7236 15.3471 15.044 16.3508 15.6732C17.2266 16.2289 18.2475 16.5121 19.2841 16.4871C20.3202 16.5117 21.3403 16.2285 22.2157 15.6732Z" fill="#05192C"/>
</svg>
