<svg width="24" height="25" viewBox="0 0 24 25" fill="none" xmlns="http://www.w3.org/2000/svg">
<mask id="path-1-inside-1" fill="white">
<path fill-rule="evenodd" clip-rule="evenodd" d="M16.9482 0.0763632C14.7402 -0.0266368 9.27123 -0.0216368 7.06123 0.0763632C5.11923 0.167363 3.40623 0.636363 2.02523 2.01736C-0.0400825 4.08267 -0.0210312 6.79019 0.00581128 10.6049C0.00896548 11.0532 0.0122273 11.5168 0.0122273 11.9964C0.0122273 12.4452 0.00982316 12.879 0.00749832 13.2985C-0.0143539 17.2416 -0.029203 19.9209 2.02523 21.9754C4.09432 24.0436 6.83168 24.0232 10.6034 23.9952H10.6035C11.0553 23.9918 11.522 23.9884 12.0042 23.9884H12.0694H12.0694C16.6433 23.9884 18.2319 23.9884 19.8592 23.3584C22.0822 22.4954 23.7602 20.5084 23.9242 16.9394C24.0282 14.7304 24.0222 9.26236 23.9242 7.05236C23.7262 2.83936 21.4652 0.284363 16.9482 0.0763632ZM20.4432 20.4484C19.0498 21.8418 17.1594 21.8374 13.0762 21.828C12.7257 21.8272 12.3591 21.8264 11.9752 21.8264C11.7397 21.8264 11.5109 21.8265 11.2884 21.8267H11.2884C6.78755 21.8299 4.90132 21.8313 3.50723 20.4334C2.05689 18.9899 2.08087 16.7937 2.11568 13.6063V13.6063C2.12131 13.0906 2.12723 12.549 2.12723 11.9804C2.12723 11.4982 2.12291 11.0278 2.11871 10.5706L2.11871 10.5705C2.07481 5.78897 2.04417 2.45158 7.10523 2.19236L7.16262 2.19033C8.39126 2.14691 8.8029 2.13236 11.9612 2.13236L12.0062 2.16236C12.4629 2.16236 12.911 2.15827 13.3491 2.15426C18.0229 2.11154 21.5377 2.07941 21.7672 7.14836C21.8242 8.41336 21.8372 8.79336 21.8372 11.9954C21.8372 12.2833 21.8374 12.5613 21.8377 12.8299C21.8418 17.1706 21.8436 19.0414 20.4432 20.4484ZM12.0017 5.83789C8.59875 5.83789 5.84375 8.59589 5.84375 11.9959C5.84375 15.3989 8.60175 18.1539 12.0017 18.1539C15.4048 18.1539 18.1598 15.3959 18.1598 11.9959C18.1598 8.59289 15.4018 5.83789 12.0017 5.83789ZM12.0017 15.9929C9.79275 15.9929 8.00475 14.2039 8.00475 11.9959C8.00475 9.78789 9.79375 7.99889 12.0017 7.99889C14.2098 7.99889 15.9987 9.78789 15.9987 11.9959C15.9998 14.2039 14.2108 15.9929 12.0017 15.9929ZM19.8468 5.59525C19.8468 6.38998 19.2025 7.03425 18.4078 7.03425C17.613 7.03425 16.9688 6.38998 16.9688 5.59525C16.9688 4.80051 17.613 4.15625 18.4078 4.15625C19.2025 4.15625 19.8468 4.80051 19.8468 5.59525Z"/>
</mask>
<path fill-rule="evenodd" clip-rule="evenodd" d="M16.9482 0.0763632C14.7402 -0.0266368 9.27123 -0.0216368 7.06123 0.0763632C5.11923 0.167363 3.40623 0.636363 2.02523 2.01736C-0.0400825 4.08267 -0.0210312 6.79019 0.00581128 10.6049C0.00896548 11.0532 0.0122273 11.5168 0.0122273 11.9964C0.0122273 12.4452 0.00982316 12.879 0.00749832 13.2985C-0.0143539 17.2416 -0.029203 19.9209 2.02523 21.9754C4.09432 24.0436 6.83168 24.0232 10.6034 23.9952H10.6035C11.0553 23.9918 11.522 23.9884 12.0042 23.9884H12.0694H12.0694C16.6433 23.9884 18.2319 23.9884 19.8592 23.3584C22.0822 22.4954 23.7602 20.5084 23.9242 16.9394C24.0282 14.7304 24.0222 9.26236 23.9242 7.05236C23.7262 2.83936 21.4652 0.284363 16.9482 0.0763632ZM20.4432 20.4484C19.0498 21.8418 17.1594 21.8374 13.0762 21.828C12.7257 21.8272 12.3591 21.8264 11.9752 21.8264C11.7397 21.8264 11.5109 21.8265 11.2884 21.8267H11.2884C6.78755 21.8299 4.90132 21.8313 3.50723 20.4334C2.05689 18.9899 2.08087 16.7937 2.11568 13.6063V13.6063C2.12131 13.0906 2.12723 12.549 2.12723 11.9804C2.12723 11.4982 2.12291 11.0278 2.11871 10.5706L2.11871 10.5705C2.07481 5.78897 2.04417 2.45158 7.10523 2.19236L7.16262 2.19033C8.39126 2.14691 8.8029 2.13236 11.9612 2.13236L12.0062 2.16236C12.4629 2.16236 12.911 2.15827 13.3491 2.15426C18.0229 2.11154 21.5377 2.07941 21.7672 7.14836C21.8242 8.41336 21.8372 8.79336 21.8372 11.9954C21.8372 12.2833 21.8374 12.5613 21.8377 12.8299C21.8418 17.1706 21.8436 19.0414 20.4432 20.4484ZM12.0017 5.83789C8.59875 5.83789 5.84375 8.59589 5.84375 11.9959C5.84375 15.3989 8.60175 18.1539 12.0017 18.1539C15.4048 18.1539 18.1598 15.3959 18.1598 11.9959C18.1598 8.59289 15.4018 5.83789 12.0017 5.83789ZM12.0017 15.9929C9.79275 15.9929 8.00475 14.2039 8.00475 11.9959C8.00475 9.78789 9.79375 7.99889 12.0017 7.99889C14.2098 7.99889 15.9987 9.78789 15.9987 11.9959C15.9998 14.2039 14.2108 15.9929 12.0017 15.9929ZM19.8468 5.59525C19.8468 6.38998 19.2025 7.03425 18.4078 7.03425C17.613 7.03425 16.9688 6.38998 16.9688 5.59525C16.9688 4.80051 17.613 4.15625 18.4078 4.15625C19.2025 4.15625 19.8468 4.80051 19.8468 5.59525Z" fill="white"/>
<path d="M7.06123 0.0763632L6.11615 -21.236L6.08941 -21.2348L6.06267 -21.2336L7.06123 0.0763632ZM16.9482 0.0763632L15.9541 21.3865L15.9669 21.3871L16.9482 0.0763632ZM2.02523 2.01736L-13.0597 -13.0676L2.02523 2.01736ZM0.00581128 10.6049L21.3386 10.4548L0.00581128 10.6049ZM0.00749832 13.2985L-21.3255 13.1803L0.00749832 13.2985ZM2.02523 21.9754L-13.0597 37.0603L-13.0565 37.0636L2.02523 21.9754ZM10.6034 23.9952V2.66186H10.5241L10.4448 2.66244L10.6034 23.9952ZM10.6035 23.9952V45.3285H10.6827L10.762 45.3279L10.6035 23.9952ZM12.0694 23.9884L12.0694 2.65503H12.0694V23.9884ZM19.8592 23.3584L27.5615 43.2528L27.5706 43.2492L27.5797 43.2457L19.8592 23.3584ZM23.9242 16.9394L2.6145 15.9361L2.61394 15.9481L2.61338 15.9601L23.9242 16.9394ZM23.9242 7.05236L45.2366 6.10729L45.2354 6.07907L45.234 6.05085L23.9242 7.05236ZM13.0762 21.828L13.0271 43.1613H13.0272L13.0762 21.828ZM20.4432 20.4484L35.5282 35.5333L35.5459 35.5156L35.5636 35.4978L20.4432 20.4484ZM11.2884 21.8267V43.16H11.2961L11.3038 43.16L11.2884 21.8267ZM11.2884 21.8267V0.493351H11.2807L11.2731 0.493356L11.2884 21.8267ZM3.50723 20.4334L18.6128 5.36903L18.5845 5.34074L18.5562 5.31256L3.50723 20.4334ZM2.11568 13.6063L23.4477 13.8393L23.449 13.7228V13.6063H2.11568ZM2.11568 13.6063L-19.2164 13.3734L-19.2177 13.4898V13.6063H2.11568ZM2.11871 10.5706L23.4511 10.3747L23.4503 10.2822L23.4486 10.1897L2.11871 10.5706ZM2.11871 10.5705L-19.2137 10.7664L-19.2129 10.8589L-19.2112 10.9514L2.11871 10.5705ZM7.10523 2.19236L6.35187 -19.1277L6.18289 -19.1217L6.01402 -19.113L7.10523 2.19236ZM7.16262 2.19033L7.91598 23.5104L7.91613 23.5104L7.16262 2.19033ZM11.9612 2.13236L23.795 -15.6179L18.4205 -19.201H11.9612V2.13236ZM12.0062 2.16236L0.172472 19.9127L5.54692 23.4957H12.0062V2.16236ZM13.3491 2.15426L13.1541 -19.1782H13.1541L13.3491 2.15426ZM21.7672 7.14836L43.0789 6.18805L43.0787 6.1835L21.7672 7.14836ZM21.8372 11.9954L43.1706 11.9997V11.9954H21.8372ZM21.8377 12.8299L43.171 12.8096V12.8095L21.8377 12.8299ZM15.9987 11.9959H-5.33459L-5.33458 12.0056L15.9987 11.9959ZM8.0063 21.3888C9.61287 21.3175 14.4334 21.3156 15.9541 21.3865L17.9423 -21.2338C15.047 -21.3689 8.92959 -21.3608 6.11615 -21.236L8.0063 21.3888ZM17.1102 17.1023C15.4113 18.8012 13.424 19.9694 11.5071 20.6539C9.75507 21.2796 8.43521 21.3687 8.05979 21.3863L6.06267 -21.2336C1.25054 -21.0081 -6.4952 -19.6321 -13.0597 -13.0676L17.1102 17.1023ZM21.3386 10.4548C21.3312 9.40033 21.3312 8.95812 21.3417 8.63659C21.351 8.34901 21.3573 8.69852 21.2374 9.37536C21.1075 10.109 20.8051 11.3795 20.0873 12.8834C19.3388 14.4517 18.3201 15.8923 17.1102 17.1023L-13.0597 -13.0676C-22.6029 -3.52438 -21.3361 9.45486 -21.327 10.7551L21.3386 10.4548ZM21.3456 11.9964C21.3456 11.4301 21.3417 10.8931 21.3386 10.4548L-21.327 10.7551C-21.3238 11.2133 -21.3211 11.6035 -21.3211 11.9964H21.3456ZM21.3405 13.4168C21.3428 13.0051 21.3456 12.5135 21.3456 11.9964H-21.3211C-21.3211 12.377 -21.3231 12.753 -21.3255 13.1803L21.3405 13.4168ZM17.1102 6.89041C18.3136 8.09387 19.3378 9.53594 20.0932 11.1187C20.8168 12.6348 21.1186 13.9128 21.2468 14.6398C21.3645 15.3072 21.3568 15.6424 21.3464 15.3255C21.3349 14.9771 21.3345 14.5036 21.3405 13.4168L-21.3255 13.1803C-21.333 14.5299 -22.5955 27.5246 -13.0597 37.0603L17.1102 6.89041ZM10.4448 2.66244C9.40195 2.67019 8.96748 2.67025 8.65157 2.66004C8.37003 2.65095 8.71675 2.64487 9.38799 2.76348C10.1133 2.89165 11.375 3.19055 12.8715 3.90237C14.433 4.64508 15.8818 5.66261 17.1069 6.88716L-13.0565 37.0636C-3.50569 46.6102 9.50698 45.3373 10.7619 45.3279L10.4448 2.66244ZM10.6035 2.66186H10.6034V45.3285H10.6035V2.66186ZM12.0042 2.65503C11.4304 2.65503 10.8861 2.65917 10.4449 2.66244L10.762 45.3279C11.2245 45.3245 11.6137 45.3217 12.0042 45.3217V2.65503ZM12.0694 2.65503H12.0042V45.3217H12.0694V2.65503ZM12.0694 2.65503H12.0694V45.3217H12.0694V2.65503ZM12.157 3.46397C12.5067 3.32859 12.8928 3.19602 13.3083 3.07564C13.7231 2.95545 14.1145 2.86271 14.4711 2.79238C15.1674 2.65507 15.6221 2.62543 15.6394 2.62426C15.652 2.62342 15.592 2.62762 15.4307 2.63279C15.2696 2.63797 15.0453 2.64295 14.7305 2.64674C14.4163 2.65052 14.0471 2.65273 13.5964 2.65387C13.1444 2.65502 12.6479 2.65503 12.0694 2.65503L12.0693 45.3217C14.8117 45.3217 21.309 45.6734 27.5615 43.2528L12.157 3.46397ZM2.61338 15.9601C2.67754 14.564 3.13137 11.936 5.04903 9.12912C7.01047 6.25817 9.66819 4.43015 12.1387 3.47106L27.5797 43.2457C32.2733 41.4236 36.8815 38.1706 40.2787 33.1981C43.6321 28.2897 45.0069 22.8837 45.2351 17.9186L2.61338 15.9601ZM2.61184 7.99743C2.68331 9.60919 2.68563 14.4251 2.6145 15.9361L45.234 17.9426C45.3708 15.0356 45.3611 8.91553 45.2366 6.10729L2.61184 7.99743ZM15.9669 21.3871C14.3738 21.3138 10.335 20.6224 6.73648 16.9093C3.24053 13.3021 2.67918 9.43184 2.61442 8.05388L45.234 6.05085C44.9713 0.459883 43.1804 -6.79435 37.3752 -12.7843C31.4674 -18.8802 24.0396 -20.953 17.9296 -21.2344L15.9669 21.3871ZM13.0272 43.1613C14.3895 43.1644 17.7852 43.2292 20.9033 42.766C25.1299 42.1381 30.6909 40.3705 35.5282 35.5333L5.35828 5.36342C6.82621 3.89549 8.60122 2.65849 10.5702 1.77804C12.4035 0.958284 13.9117 0.669722 14.6335 0.562493C15.2969 0.463934 15.6169 0.475403 15.2012 0.48618C14.7913 0.496803 14.2367 0.49729 13.1253 0.494733L13.0272 43.1613ZM11.9752 43.1597C12.3309 43.1597 12.6737 43.1605 13.0271 43.1613L13.1253 0.494733C12.7778 0.493933 12.3873 0.493026 11.9752 0.493026V43.1597ZM11.3038 43.16C11.5272 43.1599 11.7486 43.1597 11.9752 43.1597V0.493026C11.7309 0.493026 11.4945 0.493197 11.273 0.493356L11.3038 43.16ZM11.2884 43.16H11.2884V0.493351H11.2884V43.16ZM-11.5983 35.4977C-6.70225 40.4071 -1.06874 42.1575 3.19243 42.771C6.29175 43.2173 9.74168 43.1611 11.3037 43.16L11.2731 0.493356C10.0602 0.494226 9.40734 0.493141 8.91512 0.480556C8.40818 0.467594 8.6648 0.452284 9.27313 0.539874C9.93798 0.635603 11.4559 0.910535 13.3213 1.73721C15.3441 2.63358 17.1437 3.89595 18.6128 5.36903L-11.5983 35.4977ZM-19.2164 13.3734C-19.2275 14.3926 -19.3231 17.6697 -18.8379 20.8706C-18.2535 24.727 -16.5906 30.5293 -11.5418 35.5542L18.5562 5.31256C22.1547 8.89396 23.1044 12.8765 23.347 14.477C23.4523 15.172 23.4475 15.5558 23.4422 15.3257C23.4366 15.0794 23.4381 14.7257 23.4477 13.8393L-19.2164 13.3734ZM-19.2177 13.6063V13.6063H23.449V13.6063H-19.2177ZM-19.2061 11.9804C-19.2061 12.415 -19.2106 12.8439 -19.2164 13.3734L23.4477 13.8393C23.4532 13.3373 23.4606 12.6829 23.4606 11.9804H-19.2061ZM-19.2137 10.7664C-19.2094 11.2374 -19.2061 11.6116 -19.2061 11.9804H23.4606C23.4606 11.3848 23.4552 10.8181 23.4511 10.3747L-19.2137 10.7664ZM-19.2112 10.9514V10.9515L23.4486 10.1897V10.1896L-19.2112 10.9514ZM6.01402 -19.113C2.58059 -18.9372 -2.11493 -18.1549 -6.77502 -15.3644C-11.838 -12.3327 -15.1048 -7.98811 -16.9501 -3.62576C-18.5852 0.239445 -18.9723 3.79486 -19.1125 5.77429C-19.2546 7.78179 -19.2226 9.79841 -19.2137 10.7664L23.4511 10.3747C23.4381 8.95186 23.4497 8.75822 23.4477 8.78704C23.4477 8.78781 23.3609 10.5961 22.3453 12.9969C21.1195 15.8948 18.7913 19.0576 15.1446 21.2412C11.9008 23.1836 9.09934 23.4515 8.19643 23.4978L6.01402 -19.113ZM6.40926 -19.1297L6.35187 -19.1277L7.85859 23.5124L7.91598 23.5104L6.40926 -19.1297ZM11.9612 -19.201C8.66954 -19.201 7.98404 -19.1854 6.40911 -19.1297L7.91613 23.5104C8.51412 23.4892 8.72907 23.482 9.1352 23.4763C9.62239 23.4696 10.3818 23.4657 11.9612 23.4657V-19.201ZM23.84 -15.5879L23.795 -15.6179L0.127473 19.8827L0.172472 19.9127L23.84 -15.5879ZM13.1541 -19.1782C12.7017 -19.174 12.3497 -19.171 12.0062 -19.171V23.4957C12.576 23.4957 13.1204 23.4906 13.5441 23.4867L13.1541 -19.1782ZM43.0787 6.1835C42.9165 2.60001 42.096 -2.2032 39.1991 -6.92784C36.0875 -12.0025 31.6908 -15.1861 27.4157 -16.9638C23.5983 -18.5511 20.0916 -18.9359 18.1119 -19.0762C16.1055 -19.2184 14.1039 -19.1869 13.1541 -19.1782L13.5441 23.4867C14.9312 23.474 15.1216 23.4855 15.0959 23.4837C14.9975 23.4767 14.5718 23.4441 13.9374 23.3209C13.301 23.1972 12.2737 22.9482 11.0339 22.4327C8.25041 21.2753 5.06752 19.0313 2.82559 15.375C0.798264 12.0686 0.503219 9.16224 0.455725 8.11322L43.0787 6.1835ZM43.1706 11.9954C43.1706 8.68981 43.1576 7.9338 43.0789 6.18805L0.45552 8.10867C0.48146 8.68434 0.487617 8.84773 0.492959 9.18419C0.500244 9.64295 0.503895 10.3747 0.503895 11.9954H43.1706ZM43.171 12.8095C43.1708 12.5393 43.1705 12.2734 43.1706 11.9997L0.503895 11.991C0.503833 12.2932 0.504112 12.5833 0.504366 12.8502L43.171 12.8095ZM35.5636 35.4978C40.3721 30.6667 42.1451 25.1249 42.7744 20.8371C43.2311 17.7248 43.1724 14.2906 43.171 12.8096L0.504366 12.8501C0.505482 14.0247 0.50442 14.6376 0.492436 15.0957C0.480165 15.5647 0.466548 15.2777 0.559919 14.6415C0.662288 13.944 0.945535 12.432 1.76877 10.586C2.65598 8.59651 3.89328 6.83523 5.32291 5.39888L35.5636 35.4978ZM27.1771 11.9959C27.1771 20.3712 20.3876 27.1712 12.0017 27.1712V-15.4954C-3.1901 -15.4954 -15.4896 -3.17941 -15.4896 11.9959H27.1771ZM12.0017 -3.17944C20.3771 -3.17944 27.1771 3.61005 27.1771 11.9959H-15.4896C-15.4896 27.1877 -3.17356 39.4872 12.0017 39.4872V-3.17944ZM-3.17358 11.9959C-3.17358 3.62058 3.61592 -3.17944 12.0017 -3.17944V39.4872C27.1936 39.4872 39.4931 27.1712 39.4931 11.9959H-3.17358ZM12.0017 27.1712C3.62645 27.1712 -3.17358 20.3817 -3.17358 11.9959H39.4931C39.4931 -3.19595 27.1771 -15.4954 12.0017 -15.4954V27.1712ZM-13.3286 11.9959C-13.3286 25.9825 -1.99281 37.3262 12.0017 37.3262V-5.34044C21.5783 -5.34044 29.3381 2.4253 29.3381 11.9959H-13.3286ZM12.0017 -13.3344C-1.98833 -13.3344 -13.3286 -1.99418 -13.3286 11.9959H29.3381C29.3381 21.57 21.5758 29.3322 12.0017 29.3322V-13.3344ZM37.3321 11.9959C37.3321 -1.99418 25.9918 -13.3344 12.0017 -13.3344V29.3322C2.42767 29.3322 -5.33458 21.57 -5.33458 11.9959H37.3321ZM12.0017 37.3262C25.9875 37.3262 37.3384 25.9892 37.3321 11.9862L-5.33458 12.0056C-5.33893 2.4186 2.43401 -5.34044 12.0017 -5.34044V37.3262ZM18.4078 28.3676C30.9845 28.3676 41.1801 18.1721 41.1801 5.59525H-1.48658C-1.48658 -5.39212 7.42044 -14.2991 18.4078 -14.2991V28.3676ZM-4.36458 5.59525C-4.36458 18.1721 5.831 28.3676 18.4078 28.3676V-14.2991C29.395 -14.2991 38.3021 -5.39215 38.3021 5.59525H-4.36458ZM18.4078 -17.1771C5.83102 -17.1771 -4.36458 -6.98164 -4.36458 5.59525H38.3021C38.3021 16.5827 29.395 25.4896 18.4078 25.4896V-17.1771ZM41.1801 5.59525C41.1801 -6.98161 30.9845 -17.1771 18.4078 -17.1771V25.4896C7.42046 25.4896 -1.48658 16.5826 -1.48658 5.59525H41.1801Z" fill="white" mask="url(#path-1-inside-1)"/>
</svg>
